<svg xmlns="http://www.w3.org/2000/svg" viewBox="0 0 213 224" fillRule="evenodd" clipRule="evenodd">
<g><path style="opacity:1" d="M 124.5,12.5 C 121.309,12.974 118.309,13.974 115.5,15.5C 114.571,14.3112 114.238,12.9778 114.5,11.5C 110.407,11.5222 106.407,12.1888 102.5,13.5C 100.742,13.4084 99.0755,13.075 97.5,12.5C 101.664,10.1648 106.164,8.4981 111,7.5C 115.836,8.4981 120.336,10.1648 124.5,12.5 Z"/></g>
<g><path style="opacity:1" d="M 125.5,12.5 C 134.677,15.928 143.677,19.5947 152.5,23.5C 152.38,24.5862 151.713,25.2528 150.5,25.5C 146.637,23.7678 142.637,22.4344 138.5,21.5C 135.802,22.1914 133.135,22.8581 130.5,23.5C 130.5,21.5 130.5,19.5 130.5,17.5C 128.169,17.5023 126.169,16.669 124.5,15C 125.252,14.3292 125.586,13.4959 125.5,12.5 Z"/></g>
<g><path style="opacity:1" d="M 124.5,12.5 C 124.833,12.5 125.167,12.5 125.5,12.5C 125.586,13.4959 125.252,14.3292 124.5,15C 126.169,16.669 128.169,17.5023 130.5,17.5C 130.5,19.5 130.5,21.5 130.5,23.5C 133.135,22.8581 135.802,22.1914 138.5,21.5C 142.637,22.4344 146.637,23.7678 150.5,25.5C 151.713,25.2528 152.38,24.5862 152.5,23.5C 152.833,23.5 153.167,23.5 153.5,23.5C 153.594,26.0685 154.928,27.5685 157.5,28C 157.167,28.3333 156.833,28.6667 156.5,29C 161.798,30.1593 167.131,30.9926 172.5,31.5C 173.167,31.5 173.833,31.5 174.5,31.5C 174.241,34.4797 175.574,36.313 178.5,37C 177.167,37.3333 175.833,37.6667 174.5,38C 173.359,38.7412 173.359,39.5745 174.5,40.5C 168.523,41.1609 162.856,42.8275 157.5,45.5C 156.075,45.3767 154.742,45.0434 153.5,44.5C 154.398,43.8423 155.398,43.1757 156.5,42.5C 147.227,39.5235 138.227,36.0235 129.5,32C 116.415,31.0816 103.415,31.5816 90.5,33.5C 90.9175,32.7784 91.5842,32.2784 92.5,32C 89.7213,31.1112 87.0546,29.9445 84.5,28.5C 95.5376,28.6889 106.538,28.1889 117.5,27C 112.397,24.9179 107.063,23.4179 101.5,22.5C 99.7836,18.5896 96.7836,16.9229 92.5,17.5C 93.1834,15.8235 94.5168,15.1568 96.5,15.5C 96.5,14.5 96.5,13.5 96.5,12.5C 96.8333,12.5 97.1667,12.5 97.5,12.5C 99.0755,13.075 100.742,13.4084 102.5,13.5C 106.407,12.1888 110.407,11.5222 114.5,11.5C 114.238,12.9778 114.571,14.3112 115.5,15.5C 118.309,13.974 121.309,12.974 124.5,12.5 Z"/></g>
<g><path style="opacity:1" d="M 153.5,23.5 C 160.012,25.9279 166.345,28.5946 172.5,31.5C 167.131,30.9926 161.798,30.1593 156.5,29C 156.833,28.6667 157.167,28.3333 157.5,28C 154.928,27.5685 153.594,26.0685 153.5,23.5 Z"/></g>
<g><path style="opacity:1" d="M 92.5,17.5 C 96.7836,16.9229 99.7836,18.5896 101.5,22.5C 107.063,23.4179 112.397,24.9179 117.5,27C 106.538,28.1889 95.5376,28.6889 84.5,28.5C 87.0546,29.9445 89.7213,31.1112 92.5,32C 91.5842,32.2784 90.9175,32.7784 90.5,33.5C 84.5261,34.4956 78.5261,35.4956 72.5,36.5C 69.9453,40.0715 66.612,42.4048 62.5,43.5C 56.4115,42.1446 50.4115,40.4779 44.5,38.5C 43.8333,37.8333 43.1667,37.1667 42.5,36.5C 59.7995,29.7679 76.4662,23.4346 92.5,17.5 Z"/></g>
<g><path style="opacity:1" d="M 96.5,12.5 C 96.5,13.5 96.5,14.5 96.5,15.5C 94.5168,15.1568 93.1834,15.8235 92.5,17.5C 76.4662,23.4346 59.7995,29.7679 42.5,36.5C 43.1667,37.1667 43.8333,37.8333 44.5,38.5C 50.4115,40.4779 56.4115,42.1446 62.5,43.5C 66.612,42.4048 69.9453,40.0715 72.5,36.5C 78.5261,35.4956 84.5261,34.4956 90.5,33.5C 103.415,31.5816 116.415,31.0816 129.5,32C 138.227,36.0235 147.227,39.5235 156.5,42.5C 155.398,43.1757 154.398,43.8423 153.5,44.5C 125.61,30.0887 97.6104,29.9221 69.5,44C 68.5939,45.6995 68.2606,47.5328 68.5,49.5C 58.6489,46.5774 48.9822,43.0774 39.5,39C 38.09,38.6322 37.09,37.7989 36.5,36.5C 56.4395,28.2991 76.4395,20.2991 96.5,12.5 Z"/></g>
<g><path style="opacity:1" d="M 179.5,33.5 C 181.482,34.4912 183.482,35.4912 185.5,36.5C 182.701,38.4025 179.701,40.0692 176.5,41.5C 176.389,40.8826 176.056,40.3826 175.5,40C 179.913,39.5539 181.246,37.3873 179.5,33.5 Z"/></g>
<g><path style="opacity:1" d="M 174.5,31.5 C 176.05,32.4408 177.716,33.1075 179.5,33.5C 181.246,37.3873 179.913,39.5539 175.5,40C 176.056,40.3826 176.389,40.8826 176.5,41.5C 176.071,47.057 176.737,52.3904 178.5,57.5C 177.126,62.4339 177.46,67.2672 179.5,72C 179.355,72.772 179.022,73.4387 178.5,74C 174.909,74.7886 171.409,74.6219 168,73.5C 167.919,69.9682 168.419,66.4682 169.5,63C 167.001,59.5877 167.167,56.421 170,53.5C 170.667,50.1667 170.667,46.8333 170,43.5C 164.646,45.9284 159.146,47.9284 153.5,49.5C 153.5,47.8333 153.5,46.1667 153.5,44.5C 154.742,45.0434 156.075,45.3767 157.5,45.5C 162.856,42.8275 168.523,41.1609 174.5,40.5C 173.359,39.5745 173.359,38.7412 174.5,38C 175.833,37.6667 177.167,37.3333 178.5,37C 175.574,36.313 174.241,34.4797 174.5,31.5 Z"/></g>
<g><path style="opacity:1" d="M 132.5,40.5 C 121.351,39.9273 110.017,39.9273 98.5,40.5C 95.5535,41.3214 92.5535,41.8214 89.5,42C 88.8333,42.6667 88.1667,43.3333 87.5,44C 83.0481,44.886 78.7148,46.0526 74.5,47.5C 74.5,52.1667 74.5,56.8333 74.5,61.5C 91.7516,59.6776 109.085,59.011 126.5,59.5C 133.167,59.5 139.833,59.5 146.5,59.5C 146.813,56.7531 146.48,54.0865 145.5,51.5C 144.943,49.6684 143.943,48.3351 142.5,47.5C 140.975,45.9642 138.975,44.9642 136.5,44.5C 135.147,43.4763 134.48,42.143 134.5,40.5C 139.631,42.1007 144.631,44.1007 149.5,46.5C 150.495,52.1278 150.829,57.7945 150.5,63.5C 124.164,60.857 97.8307,60.857 71.5,63.5C 71.334,58.1563 71.5006,52.8229 72,47.5C 84.0493,40.7372 97.0493,37.4039 111,37.5C 118.424,37.6728 125.591,38.6728 132.5,40.5 Z"/></g>
<g><path style="opacity:1" d="M 142.5,47.5 C 143.943,48.3351 144.943,49.6684 145.5,51.5C 146.48,54.0865 146.813,56.7531 146.5,59.5C 139.833,59.5 133.167,59.5 126.5,59.5C 123.663,57.5977 120.329,56.931 116.5,57.5C 116.172,52.1254 116.505,46.7921 117.5,41.5C 125.389,45.2219 133.722,47.2219 142.5,47.5 Z"/></g>
<g><path style="opacity:1" d="M 132.5,40.5 C 133.167,40.5 133.833,40.5 134.5,40.5C 134.48,42.143 135.147,43.4763 136.5,44.5C 138.975,44.9642 140.975,45.9642 142.5,47.5C 133.722,47.2219 125.389,45.2219 117.5,41.5C 116.505,46.7921 116.172,52.1254 116.5,57.5C 120.329,56.931 123.663,57.5977 126.5,59.5C 109.085,59.011 91.7516,59.6776 74.5,61.5C 74.5,56.8333 74.5,52.1667 74.5,47.5C 78.7148,46.0526 83.0481,44.886 87.5,44C 88.1667,43.3333 88.8333,42.6667 89.5,42C 92.5535,41.8214 95.5535,41.3214 98.5,40.5C 110.017,39.9273 121.351,39.9273 132.5,40.5 Z"/></g>
<g><path style="opacity:1" d="M 172.5,55.5 C 174.446,60.3958 175.113,65.7291 174.5,71.5C 173.167,71.5 171.833,71.5 170.5,71.5C 170.298,65.2891 170.964,59.9557 172.5,55.5 Z"/></g>
<g><path style="opacity:1" d="M 160.5,77.5 C 164.954,79.3012 166.954,82.6345 166.5,87.5C 165.628,88.6124 165.628,89.9458 166.5,91.5C 167.604,95.1668 169.271,98.5001 171.5,101.5C 172.833,104.833 172.833,108.167 171.5,111.5C 167.467,109.145 163.467,107.145 159.5,105.5C 162.898,105.82 166.232,105.487 169.5,104.5C 165.667,96.8333 161.833,89.1667 158,81.5C 156.048,79.1064 153.548,77.6064 150.5,77C 124.165,73.6833 97.8317,73.6833 71.5,77C 68.3515,77.7384 65.6848,79.2384 63.5,81.5C 63.3505,80.448 63.5172,79.448 64,78.5C 66.0403,76.9594 68.2069,75.6261 70.5,74.5C 76.4725,73.6697 82.4725,73.1697 88.5,73C 89.4162,72.6258 90.2496,72.1258 91,71.5C 104.724,71.2371 118.558,71.5705 132.5,72.5C 142.05,73.1915 151.383,74.8582 160.5,77.5 Z"/></g>
<g><path style="opacity:1" d="M 178.5,103.5 C 177.167,103.5 175.833,103.5 174.5,103.5C 172.849,97.5304 170.182,92.1971 166.5,87.5C 166.954,82.6345 164.954,79.3012 160.5,77.5C 160.5,76.1667 160.5,74.8333 160.5,73.5C 155.918,73.2496 151.751,71.9162 148,69.5C 147.439,70.0219 146.772,70.3552 146,70.5C 121.401,66.5423 96.9011,66.5423 72.5,70.5C 61.0852,73.7475 53.9185,81.0808 51,92.5C 50.3333,94.5 50.3333,96.5 51,98.5C 53.1485,94.2029 55.3152,89.8696 57.5,85.5C 58.9166,83.7389 60.5833,82.4056 62.5,81.5C 58.6527,89.3723 54.986,97.2057 51.5,105C 55.2222,105.238 58.8889,105.738 62.5,106.5C 63.1835,106.137 63.8501,105.804 64.5,105.5C 64.5,106.833 64.5,108.167 64.5,109.5C 59.3517,110.074 54.5184,109.407 50,107.5C 49.6667,107.833 49.3333,108.167 49,108.5C 48.5065,106.866 48.3398,105.199 48.5,103.5C 45.2655,104.576 41.9322,105.243 38.5,105.5C 38.5,104.167 38.5,102.833 38.5,101.5C 39.5,101.5 40.5,101.5 41.5,101.5C 42.1174,101.611 42.6174,101.944 43,102.5C 47.3964,93.3743 52.0631,84.3743 57,75.5C 59.5,73.6667 62,71.8333 64.5,70C 96.2601,63.6725 127.927,64.0059 159.5,71C 162.667,72.8333 165.167,75.3333 167,78.5C 171.393,86.6158 175.226,94.9492 178.5,103.5 Z"/></g>
<g><path style="opacity:1" d="M 160.5,77.5 C 151.383,74.8582 142.05,73.1915 132.5,72.5C 118.558,71.5705 104.724,71.2371 91,71.5C 90.2496,72.1258 89.4162,72.6258 88.5,73C 82.4725,73.1697 76.4725,73.6697 70.5,74.5C 68.2069,75.6261 66.0403,76.9594 64,78.5C 63.5172,79.448 63.3505,80.448 63.5,81.5C 63.1667,81.5 62.8333,81.5 62.5,81.5C 60.5833,82.4056 58.9166,83.7389 57.5,85.5C 55.3152,89.8696 53.1485,94.2029 51,98.5C 50.3333,96.5 50.3333,94.5 51,92.5C 53.9185,81.0808 61.0852,73.7475 72.5,70.5C 96.9011,66.5423 121.401,66.5423 146,70.5C 146.772,70.3552 147.439,70.0219 148,69.5C 151.751,71.9162 155.918,73.2496 160.5,73.5C 160.5,74.8333 160.5,76.1667 160.5,77.5 Z"/></g>
<g><path style="opacity:1" d="M 122.5,105.5 C 115.037,106.891 107.37,108.224 99.5,109.5C 97.4218,107.08 95.0885,105.08 92.5,103.5C 93.013,90.4394 87.013,86.106 74.5,90.5C 69.9647,93.6155 67.6314,97.9488 67.5,103.5C 66.7348,104.612 65.7348,105.279 64.5,105.5C 65.9936,100.868 67.4936,96.2018 69,91.5C 69.8333,90.6667 70.6667,89.8333 71.5,89C 78.1667,88.3333 84.8333,88.3333 91.5,89C 94.1754,93.8522 96.1754,99.0188 97.5,104.5C 105.807,105.498 114.14,105.831 122.5,105.5 Z"/></g>
<g><path style="opacity:1" d="M 38.5,96.5 C 39.8333,98.1667 39.8333,99.8333 38.5,101.5C 33.391,99.7239 28.0577,99.0573 22.5,99.5C 21.8333,102.167 21.1667,104.833 20.5,107.5C 19.1816,104.435 19.1816,101.269 20.5,98C 26.3792,96.5899 32.3792,96.0899 38.5,96.5 Z"/></g>
<g><path style="opacity:1" d="M 190.5,112.5 C 189.909,111.849 189.243,111.182 188.5,110.5C 196.418,110.917 199.752,107.251 198.5,99.5C 193.167,99.5 187.833,99.5 182.5,99.5C 182.762,100.978 182.429,102.311 181.5,103.5C 180.313,104.653 179.313,104.653 178.5,103.5C 179.418,101.18 180.752,99.0129 182.5,97C 188.167,96.3333 193.833,96.3333 199.5,97C 204.888,102.311 204.221,106.977 197.5,111C 195.134,111.44 192.801,111.94 190.5,112.5 Z"/></g>
<g><path style="opacity:1" d="M 38.5,96.5 C 40.7271,97.4006 41.7271,99.0672 41.5,101.5C 40.5,101.5 39.5,101.5 38.5,101.5C 39.8333,99.8333 39.8333,98.1667 38.5,96.5 Z"/></g>
<g><path style="opacity:1" d="M 92.5,103.5 C 92.5,105.5 92.5,107.5 92.5,109.5C 89.3019,108.964 86.6353,109.631 84.5,111.5C 73.7063,110.931 63.0397,111.598 52.5,113.5C 51.0505,112.72 49.5505,112.054 48,111.5C 45.7298,112.86 43.2298,113.527 40.5,113.5C 40.5,112.167 40.5,110.833 40.5,109.5C 33.6955,109.815 27.0288,109.148 20.5,107.5C 21.1667,104.833 21.8333,102.167 22.5,99.5C 28.0577,99.0573 33.391,99.7239 38.5,101.5C 38.5,102.833 38.5,104.167 38.5,105.5C 41.9322,105.243 45.2655,104.576 48.5,103.5C 48.3398,105.199 48.5065,106.866 49,108.5C 49.3333,108.167 49.6667,107.833 50,107.5C 54.5184,109.407 59.3517,110.074 64.5,109.5C 64.5,108.167 64.5,106.833 64.5,105.5C 65.7348,105.279 66.7348,104.612 67.5,103.5C 67.6314,97.9488 69.9647,93.6155 74.5,90.5C 87.013,86.106 93.013,90.4394 92.5,103.5 Z"/></g>
<g><path style="opacity:1" d="M 155.5,105.5 C 153.263,106.449 150.929,107.116 148.5,107.5C 143.156,107.666 137.823,107.499 132.5,107C 130.845,105.556 130.178,103.722 130.5,101.5C 133.135,100.858 135.802,100.191 138.5,99.5C 143.027,100.306 147.36,101.639 151.5,103.5C 152.88,94.3106 148.88,90.3106 139.5,91.5C 135.972,91.589 132.638,92.2556 129.5,93.5C 127.244,97.1906 126.244,101.191 126.5,105.5C 125.5,105.5 124.5,105.5 123.5,105.5C 124.533,100.37 126.033,95.3703 128,90.5C 128.75,89.8742 129.584,89.3742 130.5,89C 137.218,88.2052 143.884,88.3718 150.5,89.5C 153.374,94.4557 155.041,99.789 155.5,105.5 Z M 137.5,102.5 C 141.167,102.164 144.5,102.997 147.5,105C 146.271,105.781 144.938,106.281 143.5,106.5C 140.194,105.837 136.861,105.337 133.5,105C 134.858,104.066 136.192,103.232 137.5,102.5 Z"/></g>
<g><path style="opacity:1" d="M 148.5,107.5 C 147.411,109.117 145.744,109.95 143.5,110C 144.056,110.383 144.389,110.883 144.5,111.5C 124.5,111.5 104.5,111.5 84.5,111.5C 86.6353,109.631 89.3019,108.964 92.5,109.5C 92.5,107.5 92.5,105.5 92.5,103.5C 95.0885,105.08 97.4218,107.08 99.5,109.5C 107.37,108.224 115.037,106.891 122.5,105.5C 122.833,105.5 123.167,105.5 123.5,105.5C 124.5,105.5 125.5,105.5 126.5,105.5C 126.244,101.191 127.244,97.1906 129.5,93.5C 132.638,92.2556 135.972,91.589 139.5,91.5C 148.88,90.3106 152.88,94.3106 151.5,103.5C 147.36,101.639 143.027,100.306 138.5,99.5C 135.802,100.191 133.135,100.858 130.5,101.5C 130.178,103.722 130.845,105.556 132.5,107C 137.823,107.499 143.156,107.666 148.5,107.5 Z"/></g>
<g><path style="opacity:1" d="M 166.5,87.5 C 170.182,92.1971 172.849,97.5304 174.5,103.5C 175.833,103.5 177.167,103.5 178.5,103.5C 179.313,104.653 180.313,104.653 181.5,103.5C 182.429,102.311 182.762,100.978 182.5,99.5C 187.833,99.5 193.167,99.5 198.5,99.5C 199.752,107.251 196.418,110.917 188.5,110.5C 189.243,111.182 189.909,111.849 190.5,112.5C 189.167,112.5 187.833,112.5 186.5,112.5C 185.522,112.811 184.855,113.478 184.5,114.5C 188.832,117.177 191.832,120.844 193.5,125.5C 195.638,134.3 196.638,143.3 196.5,152.5C 196.167,159.5 195.833,166.5 195.5,173.5C 194.527,171.608 193.86,169.608 193.5,167.5C 194.318,161.111 194.651,154.778 194.5,148.5C 194.167,147.5 193.833,146.5 193.5,145.5C 192.702,145.957 192.369,146.624 192.5,147.5C 190.983,147.489 189.816,146.823 189,145.5C 188.503,142.854 188.336,140.187 188.5,137.5C 190.811,136.039 190.811,134.206 188.5,132C 191.064,130.264 190.731,129.098 187.5,128.5C 187.525,126.918 187.691,125.251 188,123.5C 184.678,120.012 181.178,116.679 177.5,113.5C 176.702,113.957 176.369,114.624 176.5,115.5C 175.833,115.5 175.167,115.5 174.5,115.5C 171.142,115.423 168.142,115.09 165.5,114.5C 165.167,114.5 164.833,114.5 164.5,114.5C 165.091,113.849 165.757,113.182 166.5,112.5C 159.197,111.503 151.863,111.169 144.5,111.5C 144.389,110.883 144.056,110.383 143.5,110C 145.744,109.95 147.411,109.117 148.5,107.5C 150.929,107.116 153.263,106.449 155.5,105.5C 156.833,105.5 158.167,105.5 159.5,105.5C 163.467,107.145 167.467,109.145 171.5,111.5C 172.833,108.167 172.833,104.833 171.5,101.5C 169.271,98.5001 167.604,95.1668 166.5,91.5C 165.628,89.9458 165.628,88.6124 166.5,87.5 Z"/></g>
<g><path style="opacity:1" d="M 20.5,107.5 C 27.0288,109.148 33.6955,109.815 40.5,109.5C 40.5,110.833 40.5,112.167 40.5,113.5C 43.2298,113.527 45.7298,112.86 48,111.5C 49.5505,112.054 51.0505,112.72 52.5,113.5C 63.0397,111.598 73.7063,110.931 84.5,111.5C 104.5,111.5 124.5,111.5 144.5,111.5C 151.863,111.169 159.197,111.503 166.5,112.5C 165.757,113.182 165.091,113.849 164.5,114.5C 128.161,114.167 91.8272,114.5 55.5,115.5C 55.6236,116.107 55.9569,116.44 56.5,116.5C 56.3713,118.216 56.038,119.883 55.5,121.5C 52.2707,118.718 48.604,116.718 44.5,115.5C 44.44,114.957 44.1067,114.624 43.5,114.5C 41.7988,115.554 40.1321,116.554 38.5,117.5C 38.38,116.414 37.7133,115.747 36.5,115.5C 33.9022,116.68 32.2355,118.68 31.5,121.5C 29.9931,123.69 27.9931,125.024 25.5,125.5C 27.8356,120.651 31.1689,116.484 35.5,113C 31.8136,112.441 28.147,111.774 24.5,111C 22.6763,110.34 21.343,109.173 20.5,107.5 Z"/></g>
<g><path style="opacity:1" d="M 165.5,114.5 C 168.142,115.09 171.142,115.423 174.5,115.5C 172.909,117.633 170.909,119.299 168.5,120.5C 166.565,119.85 164.565,119.517 162.5,119.5C 163.752,117.999 164.752,116.332 165.5,114.5 Z"/></g>
<g><path style="opacity:1" d="M 186.5,112.5 C 189.878,115.876 192.878,119.543 195.5,123.5C 194.833,124.167 194.167,124.833 193.5,125.5C 191.832,120.844 188.832,117.177 184.5,114.5C 184.855,113.478 185.522,112.811 186.5,112.5 Z"/></g>
<g><path style="opacity:1" d="M 162.5,119.5 C 164.565,119.517 166.565,119.85 168.5,120.5C 166.114,123.04 163.281,125.04 160,126.5C 159.5,126.167 159,125.833 158.5,125.5C 159.844,123.471 161.177,121.471 162.5,119.5 Z"/></g>
<g><path style="opacity:1" d="M 56.5,116.5 C 59.1606,119.171 61.4939,122.171 63.5,125.5C 60.2184,125.861 57.5517,124.528 55.5,121.5C 56.038,119.883 56.3713,118.216 56.5,116.5 Z"/></g>
<g><path style="opacity:1" d="M 34.5,129.5 C 38.5,130.167 42.5,130.833 46.5,131.5C 46.5,133.5 46.5,135.5 46.5,137.5C 45.7417,139.981 45.7417,142.648 46.5,145.5C 51.0986,145.2 55.5986,145.533 60,146.5C 60.4643,145.906 60.631,145.239 60.5,144.5C 60.5801,139.246 57.9134,136.58 52.5,136.5C 57.9349,134.434 61.6016,136.101 63.5,141.5C 64.2975,141.043 64.6309,140.376 64.5,139.5C 66.5,142.833 68.5,146.167 70.5,149.5C 67.8333,150.833 65.1667,152.167 62.5,153.5C 54.1604,152.799 45.8271,151.966 37.5,151C 34.9664,150.484 32.7998,149.317 31,147.5C 30.3333,156.833 30.3333,166.167 31,175.5C 32.518,177.348 34.3513,178.848 36.5,180C 45.8511,180.832 55.1845,180.665 64.5,179.5C 65.6125,177.581 66.9458,175.914 68.5,174.5C 68.5,176.833 68.5,179.167 68.5,181.5C 61.9344,182.662 55.2677,183.329 48.5,183.5C 42.7891,183.495 37.4558,182.828 32.5,181.5C 31.8166,179.824 30.4832,179.157 28.5,179.5C 29.801,169.506 29.801,159.506 28.5,149.5C 29.1953,146.496 30.5286,143.83 32.5,141.5C 30.1189,137.622 29.4523,133.622 30.5,129.5C 31.8333,129.5 33.1667,129.5 34.5,129.5 Z M 32.5,133.5 C 34.2624,133.357 35.9291,133.691 37.5,134.5C 38.208,137.366 38.8747,140.2 39.5,143C 34.4307,142.072 32.0973,138.905 32.5,133.5 Z M 46.5,137.5 C 52.7373,137.215 57.404,139.548 60.5,144.5C 60.631,145.239 60.4643,145.906 60,146.5C 55.5986,145.533 51.0986,145.2 46.5,145.5C 45.7417,142.648 45.7417,139.981 46.5,137.5 Z"/></g>
<g><path style="opacity:1" d="M 187.5,128.5 C 190.731,129.098 191.064,130.264 188.5,132C 190.811,134.206 190.811,136.039 188.5,137.5C 188.5,136.167 188.5,134.833 188.5,133.5C 186.139,133.674 183.806,134.007 181.5,134.5C 181.227,136.451 181.893,137.951 183.5,139C 183.272,139.399 182.938,139.565 182.5,139.5C 180.886,141.075 178.886,141.741 176.5,141.5C 176.843,139.517 176.176,138.183 174.5,137.5C 170.789,138.292 167.122,139.292 163.5,140.5C 162.248,142.001 161.248,143.668 160.5,145.5C 160.957,146.298 161.624,146.631 162.5,146.5C 166.981,147.648 171.648,147.815 176.5,147C 175.833,146.667 175.167,146.333 174.5,146C 176.78,145.767 178.78,144.934 180.5,143.5C 181.696,143.846 181.696,144.346 180.5,145C 181.793,145.49 183.127,145.657 184.5,145.5C 184.5,147.167 184.5,148.833 184.5,150.5C 184.167,150.5 183.833,150.5 183.5,150.5C 173.159,149.953 162.826,149.953 152.5,150.5C 153.5,149.5 154.5,148.5 155.5,147.5C 156.399,143.462 158.066,139.795 160.5,136.5C 168.11,133.622 177.11,130.955 187.5,128.5 Z"/></g>
<g><path style="opacity:1" d="M 148.5,135.5 C 149.675,135.281 150.675,135.614 151.5,136.5C 151.006,138.026 150.339,139.359 149.5,140.5C 149.371,138.784 149.038,137.117 148.5,135.5 Z"/></g>
<g><path style="opacity:1" d="M 44.5,115.5 C 41.2986,118.865 38.2986,122.365 35.5,126C 44.4544,128.822 53.4544,131.489 62.5,134C 63.464,135.725 64.1307,137.559 64.5,139.5C 64.6309,140.376 64.2975,141.043 63.5,141.5C 61.6016,136.101 57.9349,134.434 52.5,136.5C 57.9134,136.58 60.5801,139.246 60.5,144.5C 57.404,139.548 52.7373,137.215 46.5,137.5C 46.5,135.5 46.5,133.5 46.5,131.5C 42.5,130.833 38.5,130.167 34.5,129.5C 33.5285,128.601 32.8618,127.434 32.5,126C 33.6182,123.941 34.2849,121.774 34.5,119.5C 36.4832,119.843 37.8166,119.176 38.5,117.5C 40.1321,116.554 41.7988,115.554 43.5,114.5C 44.1067,114.624 44.44,114.957 44.5,115.5 Z"/></g>
<g><path style="opacity:1" d="M 148.5,135.5 C 149.038,137.117 149.371,138.784 149.5,140.5C 146.972,142.89 145.472,145.89 145,149.5C 143.5,151 142,152.5 140.5,154C 121.824,155.763 103.158,155.93 84.5,154.5C 101.671,153.833 119.005,153.167 136.5,152.5C 137.833,151.833 139.167,151.167 140.5,150.5C 142.884,146.675 144.884,142.675 146.5,138.5C 121.833,137.167 97.1667,137.167 72.5,138.5C 76.6983,143.35 80.0316,148.683 82.5,154.5C 80.2125,153.381 78.3792,151.715 77,149.5C 75.0053,144.84 72.5053,140.506 69.5,136.5C 95.8249,135.5 122.158,135.167 148.5,135.5 Z"/></g>
<g><path style="opacity:1" d="M 187.5,128.5 C 177.11,130.955 168.11,133.622 160.5,136.5C 158.066,139.795 156.399,143.462 155.5,147.5C 154.5,148.5 153.5,149.5 152.5,150.5C 162.826,149.953 173.159,149.953 183.5,150.5C 172.005,152.739 160.338,153.739 148.5,153.5C 152.04,146.919 155.707,140.419 159.5,134C 168.546,131.489 177.546,128.822 186.5,126C 183.665,121.999 180.332,118.499 176.5,115.5C 176.369,114.624 176.702,113.957 177.5,113.5C 181.178,116.679 184.678,120.012 188,123.5C 187.691,125.251 187.525,126.918 187.5,128.5 Z"/></g>
<g><path style="opacity:1" d="M 84.5,154.5 C 83.8333,154.5 83.1667,154.5 82.5,154.5C 80.0316,148.683 76.6983,143.35 72.5,138.5C 97.1667,137.167 121.833,137.167 146.5,138.5C 144.884,142.675 142.884,146.675 140.5,150.5C 139.167,151.167 137.833,151.833 136.5,152.5C 119.005,153.167 101.671,153.833 84.5,154.5 Z"/></g>
<g><path style="opacity:1" d="M 38.5,117.5 C 37.8166,119.176 36.4832,119.843 34.5,119.5C 34.2849,121.774 33.6182,123.941 32.5,126C 32.8618,127.434 33.5285,128.601 34.5,129.5C 33.1667,129.5 31.8333,129.5 30.5,129.5C 29.4523,133.622 30.1189,137.622 32.5,141.5C 30.5286,143.83 29.1953,146.496 28.5,149.5C 29.801,159.506 29.801,169.506 28.5,179.5C 30.4832,179.157 31.8166,179.824 32.5,181.5C 31.1667,181.5 29.8333,181.5 28.5,181.5C 28.5,188.833 28.5,196.167 28.5,203.5C 27.2652,203.279 26.2652,202.612 25.5,201.5C 24.3298,176.061 24.3298,150.727 25.5,125.5C 27.9931,125.024 29.9931,123.69 31.5,121.5C 32.2355,118.68 33.9022,116.68 36.5,115.5C 37.7133,115.747 38.38,116.414 38.5,117.5 Z"/></g>
<g><path style="opacity:1" d="M 70.5,149.5 C 71.9649,150.406 72.9649,151.739 73.5,153.5C 69.9043,154.079 66.2376,154.079 62.5,153.5C 65.1667,152.167 67.8333,150.833 70.5,149.5 Z"/></g>
<g><path style="opacity:1" d="M 147.5,168.5 C 122.885,168.821 98.5513,169.821 74.5,171.5C 72.7179,172.72 70.7179,173.386 68.5,173.5C 70.0038,171.164 72.0038,169.331 74.5,168C 99.0035,167.17 123.337,167.337 147.5,168.5 Z"/></g>
<g><path style="opacity:1" d="M 147.5,168.5 C 147.833,168.5 148.167,168.5 148.5,168.5C 150.678,173.353 152.678,178.353 154.5,183.5C 150.833,182.167 147.167,182.167 143.5,183.5C 144.263,182.732 145.263,182.232 146.5,182C 145.584,181.722 144.918,181.222 144.5,180.5C 145.791,180.737 146.791,180.404 147.5,179.5C 148.434,178.432 148.768,177.099 148.5,175.5C 123.933,173.579 99.2666,172.912 74.5,173.5C 74.5,172.833 74.5,172.167 74.5,171.5C 98.5513,169.821 122.885,168.821 147.5,168.5 Z"/></g>
<g><path style="opacity:1" d="M 176.5,161.5 C 179.5,161.5 182.5,161.5 185.5,161.5C 185.666,165.846 185.499,170.179 185,174.5C 177.225,175.814 169.392,175.814 161.5,174.5C 157.352,170.598 157.685,167.431 162.5,165C 167.368,164.116 172.034,162.95 176.5,161.5 Z"/></g>
<g><path style="opacity:1" d="M 176.5,163.5 C 178.5,163.5 180.5,163.5 182.5,163.5C 182.5,166.833 182.5,170.167 182.5,173.5C 175.833,173.5 169.167,173.5 162.5,173.5C 162.16,170.856 162.827,168.523 164.5,166.5C 168.916,166.118 172.916,165.118 176.5,163.5 Z"/></g>
<g><path style="opacity:1" d="M 195.5,123.5 C 197.446,125.734 198.613,128.401 199,131.5C 199.177,153.21 199.677,174.876 200.5,196.5C 199.972,198.336 199.306,200.003 198.5,201.5C 197.833,201.5 197.167,201.5 196.5,201.5C 197.054,195.605 196.388,189.938 194.5,184.5C 196.173,182.477 196.84,180.144 196.5,177.5C 195.167,177.5 193.833,177.5 192.5,177.5C 192.5,167.5 192.5,157.5 192.5,147.5C 192.369,146.624 192.702,145.957 193.5,145.5C 193.833,146.5 194.167,147.5 194.5,148.5C 194.651,154.778 194.318,161.111 193.5,167.5C 193.86,169.608 194.527,171.608 195.5,173.5C 195.833,166.5 196.167,159.5 196.5,152.5C 196.638,143.3 195.638,134.3 193.5,125.5C 194.167,124.833 194.833,124.167 195.5,123.5 Z"/></g>
<g><path style="opacity:1" d="M 74.5,173.5 C 99.2666,172.912 123.933,173.579 148.5,175.5C 148.768,177.099 148.434,178.432 147.5,179.5C 146.038,178.542 144.705,177.376 143.5,176C 121.5,175.333 99.5,175.333 77.5,176C 75.8834,177.092 74.8834,178.592 74.5,180.5C 73.5266,180.013 72.5266,179.513 71.5,179C 72.5266,177.134 73.5266,175.3 74.5,173.5 Z"/></g>
<g><path style="opacity:1" d="M 36.5,173.5 C 35.179,169.767 35.179,165.934 36.5,162C 44.2661,161.951 51.9327,162.951 59.5,165C 61.4096,165.408 62.4096,166.575 62.5,168.5C 62.2601,170.89 61.2601,172.89 59.5,174.5C 52.1893,175.665 44.856,175.831 37.5,175C 36.944,174.617 36.6107,174.117 36.5,173.5 Z"/></g>
<g><path style="opacity:1" d="M 36.5,173.5 C 36.5,170.167 36.5,166.833 36.5,163.5C 43.9977,164.001 51.331,165.334 58.5,167.5C 58.5,169.5 58.5,171.5 58.5,173.5C 51.1667,173.5 43.8333,173.5 36.5,173.5 Z"/></g>
<g><path style="opacity:1" d="M 174.5,137.5 C 176.176,138.183 176.843,139.517 176.5,141.5C 178.886,141.741 180.886,141.075 182.5,139.5C 183.291,141.056 183.624,142.39 183.5,143.5C 185.972,142.04 187.639,140.04 188.5,137.5C 188.336,140.187 188.503,142.854 189,145.5C 189.816,146.823 190.983,147.489 192.5,147.5C 192.5,157.5 192.5,167.5 192.5,177.5C 191.594,179.417 190.261,181.083 188.5,182.5C 177.186,183.499 165.853,183.832 154.5,183.5C 152.678,178.353 150.678,173.353 148.5,168.5C 151.755,172.039 154.755,175.872 157.5,180C 166.833,180.667 176.167,180.667 185.5,180C 187.667,179.167 189.167,177.667 190,175.5C 190.832,166.482 190.665,157.482 189.5,148.5C 187.925,149.456 186.258,150.123 184.5,150.5C 184.5,148.833 184.5,147.167 184.5,145.5C 183.127,145.657 181.793,145.49 180.5,145C 181.696,144.346 181.696,143.846 180.5,143.5C 178.78,144.934 176.78,145.767 174.5,146C 175.167,146.333 175.833,146.667 176.5,147C 171.648,147.815 166.981,147.648 162.5,146.5C 165.977,145.677 169.644,145.177 173.5,145C 174.435,142.619 174.768,140.119 174.5,137.5 Z"/></g>
<g><path style="opacity:1" d="M 76.5,180.5 C 99.1667,180.5 121.833,180.5 144.5,180.5C 144.918,181.222 145.584,181.722 146.5,182C 145.263,182.232 144.263,182.732 143.5,183.5C 142.5,183.5 141.5,183.5 140.5,183.5C 118.49,183.833 96.4899,183.5 74.5,182.5C 75.2427,181.818 75.9094,181.151 76.5,180.5 Z"/></g>
<g><path style="opacity:1" d="M 32.5,181.5 C 37.4558,182.828 42.7891,183.495 48.5,183.5C 55.2677,183.329 61.9344,182.662 68.5,181.5C 69.7562,181.461 70.7562,181.961 71.5,183C 69.8807,183.236 68.8807,184.069 68.5,185.5C 62.8599,184.9 57.5265,185.733 52.5,188C 52.6187,192.288 52.6187,196.788 52.5,201.5C 44.6324,203.219 36.6324,203.886 28.5,203.5C 28.5,196.167 28.5,188.833 28.5,181.5C 29.8333,181.5 31.1667,181.5 32.5,181.5 Z"/></g>
<g><path style="opacity:1" d="M 192.5,177.5 C 193.833,177.5 195.167,177.5 196.5,177.5C 196.84,180.144 196.173,182.477 194.5,184.5C 196.388,189.938 197.054,195.605 196.5,201.5C 193.557,203.257 190.223,204.59 186.5,205.5C 180.496,204.166 174.496,202.833 168.5,201.5C 169.089,197.029 168.423,193.029 166.5,189.5C 166.762,188.022 166.429,186.689 165.5,185.5C 162.101,187.312 158.434,187.979 154.5,187.5C 149.833,186.167 145.167,184.833 140.5,183.5C 141.5,183.5 142.5,183.5 143.5,183.5C 147.167,182.167 150.833,182.167 154.5,183.5C 165.853,183.832 177.186,183.499 188.5,182.5C 190.261,181.083 191.594,179.417 192.5,177.5 Z"/></g>
<g><path style="opacity:1" d="M 74.5,171.5 C 74.5,172.167 74.5,172.833 74.5,173.5C 73.5266,175.3 72.5266,177.134 71.5,179C 72.5266,179.513 73.5266,180.013 74.5,180.5C 75.1667,180.5 75.8333,180.5 76.5,180.5C 75.9094,181.151 75.2427,181.818 74.5,182.5C 96.4899,183.5 118.49,183.833 140.5,183.5C 145.167,184.833 149.833,186.167 154.5,187.5C 125.761,188.065 97.0947,187.398 68.5,185.5C 68.8807,184.069 69.8807,183.236 71.5,183C 70.7562,181.961 69.7562,181.461 68.5,181.5C 68.5,179.167 68.5,176.833 68.5,174.5C 68.5,174.167 68.5,173.833 68.5,173.5C 70.7179,173.386 72.7179,172.72 74.5,171.5 Z"/></g>
<g><path style="opacity:1" d="M 25.5,125.5 C 24.3298,150.727 24.3298,176.061 25.5,201.5C 26.2652,202.612 27.2652,203.279 28.5,203.5C 36.6324,203.886 44.6324,203.219 52.5,201.5C 52.6187,196.788 52.6187,192.288 52.5,188C 57.5265,185.733 62.8599,184.9 68.5,185.5C 97.0947,187.398 125.761,188.065 154.5,187.5C 158.434,187.979 162.101,187.312 165.5,185.5C 166.429,186.689 166.762,188.022 166.5,189.5C 129.573,188.507 92.5728,188.173 55.5,188.5C 55.6657,192.846 55.499,197.179 55,201.5C 54.2155,203.286 53.0488,204.786 51.5,206C 43.1667,208 34.8333,208 26.5,206C 25.3333,204.833 24.1667,203.667 23,202.5C 21.5607,182.755 21.0607,163.088 21.5,143.5C 21.7657,139.14 22.2657,134.807 23,130.5C 23.3736,128.509 24.207,126.842 25.5,125.5 Z"/></g>
<g><path style="opacity:1" d="M 166.5,189.5 C 168.423,193.029 169.089,197.029 168.5,201.5C 174.496,202.833 180.496,204.166 186.5,205.5C 190.223,204.59 193.557,203.257 196.5,201.5C 197.167,201.5 197.833,201.5 198.5,201.5C 198.141,203.371 197.141,204.871 195.5,206C 187.5,206.667 179.5,206.667 171.5,206C 169.333,205.167 167.833,203.667 167,201.5C 166.501,197.514 166.334,193.514 166.5,189.5 Z"/></g>
</svg>
